<svg xmlns="http://www.w3.org/2000/svg" width="375" viewBox="0 0 375 375" height="375" version="1.0"><defs><clipPath id="a"><path d="M 41 56.25 L 334 56.25 L 334 318.75 L 41 318.75 Z M 41 56.25"/></clipPath><clipPath id="b"><path d="M 66 79.007812 L 309 79.007812 L 309 295.757812 L 66 295.757812 Z M 66 79.007812"/></clipPath></defs><g clip-path="url(#a)"><path fill="#1649FF" d="M 245.101562 318.460938 L 129.863281 318.460938 C 128.503906 318.460938 127.148438 318.371094 125.800781 318.191406 C 124.453125 318.015625 123.125 317.75 121.8125 317.398438 C 120.5 317.046875 119.214844 316.609375 117.957031 316.089844 C 116.699219 315.574219 115.484375 314.976562 114.304688 314.296875 C 113.125 313.621094 111.996094 312.867188 110.914062 312.042969 C 109.835938 311.21875 108.8125 310.328125 107.847656 309.371094 C 106.882812 308.414062 105.984375 307.398438 105.152344 306.324219 C 104.320312 305.246094 103.5625 304.125 102.875 302.949219 L 45.289062 203.175781 C 44.605469 201.992188 44.007812 200.769531 43.484375 199.507812 C 42.964844 198.246094 42.527344 196.957031 42.175781 195.636719 C 41.824219 194.316406 41.558594 192.980469 41.378906 191.628906 C 41.203125 190.273438 41.113281 188.914062 41.113281 187.550781 C 41.113281 186.183594 41.203125 184.824219 41.378906 183.472656 C 41.558594 182.117188 41.824219 180.78125 42.175781 179.464844 C 42.527344 178.144531 42.964844 176.855469 43.484375 175.59375 C 44.007812 174.332031 44.605469 173.109375 45.289062 171.925781 L 102.875 72.199219 C 103.554688 71.015625 104.304688 69.882812 105.132812 68.800781 C 105.960938 67.714844 106.855469 66.691406 107.816406 65.722656 C 108.777344 64.757812 109.796875 63.855469 110.878906 63.023438 C 111.957031 62.191406 113.085938 61.433594 114.265625 60.746094 C 115.445312 60.0625 116.664062 59.457031 117.925781 58.933594 C 119.183594 58.410156 120.472656 57.96875 121.789062 57.613281 C 123.105469 57.257812 124.4375 56.992188 125.789062 56.8125 C 127.140625 56.628906 128.5 56.539062 129.863281 56.539062 L 245.101562 56.539062 C 246.464844 56.539062 247.824219 56.628906 249.175781 56.808594 C 250.527344 56.988281 251.863281 57.253906 253.179688 57.609375 C 254.496094 57.964844 255.785156 58.40625 257.042969 58.929688 C 258.304688 59.453125 259.523438 60.058594 260.703125 60.742188 C 261.882812 61.425781 263.011719 62.1875 264.09375 63.019531 C 265.175781 63.851562 266.195312 64.753906 267.15625 65.71875 C 268.121094 66.6875 269.015625 67.710938 269.839844 68.796875 C 270.667969 69.882812 271.421875 71.015625 272.101562 72.199219 L 329.738281 171.960938 C 330.414062 173.148438 331.011719 174.371094 331.53125 175.632812 C 332.046875 176.894531 332.480469 178.183594 332.832031 179.503906 C 333.183594 180.824219 333.445312 182.160156 333.621094 183.511719 C 333.800781 184.863281 333.886719 186.222656 333.886719 187.585938 C 333.886719 188.953125 333.800781 190.308594 333.621094 191.664062 C 333.445312 193.015625 333.183594 194.351562 332.832031 195.671875 C 332.480469 196.988281 332.046875 198.28125 331.53125 199.542969 C 331.011719 200.804688 330.414062 202.027344 329.738281 203.210938 L 272.074219 302.988281 C 271.390625 304.160156 270.628906 305.28125 269.796875 306.355469 C 268.964844 307.429688 268.066406 308.445312 267.105469 309.402344 C 266.140625 310.359375 265.117188 311.246094 264.035156 312.070312 C 262.957031 312.894531 261.828125 313.644531 260.648438 314.320312 C 259.46875 314.996094 258.253906 315.589844 256.996094 316.109375 C 255.742188 316.625 254.457031 317.058594 253.144531 317.410156 C 251.832031 317.757812 250.503906 318.023438 249.15625 318.199219 C 247.808594 318.375 246.457031 318.460938 245.101562 318.460938 Z M 245.101562 318.460938"/></g><g clip-path="url(#b)"><path fill="#242424" d="M 235.296875 295.519531 L 139.9375 295.519531 C 138.8125 295.515625 137.691406 295.441406 136.578125 295.296875 C 135.460938 295.148438 134.359375 294.929688 133.273438 294.640625 C 132.1875 294.347656 131.125 293.988281 130.085938 293.5625 C 129.046875 293.132812 128.039062 292.640625 127.0625 292.078125 C 126.085938 291.519531 125.152344 290.898438 124.257812 290.21875 C 123.363281 289.539062 122.519531 288.804688 121.71875 288.011719 C 120.921875 287.222656 120.179688 286.382812 119.488281 285.496094 C 118.800781 284.605469 118.171875 283.679688 117.605469 282.710938 L 69.949219 200.324219 C 69.386719 199.347656 68.890625 198.335938 68.460938 197.296875 C 68.027344 196.253906 67.667969 195.1875 67.375 194.101562 C 67.085938 193.011719 66.863281 191.90625 66.71875 190.789062 C 66.570312 189.671875 66.496094 188.550781 66.496094 187.421875 C 66.496094 186.296875 66.570312 185.171875 66.71875 184.054688 C 66.863281 182.9375 67.085938 181.835938 67.375 180.746094 C 67.667969 179.65625 68.027344 178.589844 68.460938 177.550781 C 68.890625 176.507812 69.386719 175.496094 69.949219 174.519531 L 117.605469 92.175781 C 118.164062 91.199219 118.789062 90.261719 119.472656 89.367188 C 120.15625 88.472656 120.898438 87.625 121.695312 86.828125 C 122.488281 86.03125 123.332031 85.285156 124.226562 84.597656 C 125.121094 83.910156 126.054688 83.285156 127.03125 82.71875 C 128.007812 82.15625 129.015625 81.65625 130.058594 81.222656 C 131.101562 80.789062 132.164062 80.425781 133.253906 80.132812 C 134.34375 79.839844 135.449219 79.617188 136.566406 79.46875 C 137.683594 79.320312 138.808594 79.246094 139.9375 79.242188 L 235.296875 79.242188 C 236.425781 79.246094 237.550781 79.320312 238.667969 79.46875 C 239.789062 79.617188 240.890625 79.835938 241.980469 80.128906 C 243.070312 80.421875 244.136719 80.785156 245.179688 81.21875 C 246.222656 81.652344 247.230469 82.152344 248.207031 82.714844 C 249.183594 83.28125 250.121094 83.90625 251.015625 84.597656 C 251.90625 85.285156 252.753906 86.027344 253.550781 86.824219 C 254.34375 87.625 255.085938 88.472656 255.769531 89.367188 C 256.453125 90.261719 257.078125 91.199219 257.640625 92.175781 L 305.335938 174.550781 C 305.894531 175.53125 306.390625 176.539062 306.816406 177.582031 C 307.246094 178.625 307.605469 179.691406 307.894531 180.777344 C 308.1875 181.867188 308.402344 182.972656 308.550781 184.089844 C 308.695312 185.207031 308.769531 186.328125 308.769531 187.453125 C 308.769531 188.582031 308.695312 189.703125 308.550781 190.820312 C 308.402344 191.9375 308.1875 193.039062 307.894531 194.128906 C 307.605469 195.21875 307.246094 196.28125 306.816406 197.324219 C 306.390625 198.367188 305.894531 199.378906 305.335938 200.355469 L 257.617188 282.742188 C 257.050781 283.710938 256.421875 284.636719 255.734375 285.523438 C 255.046875 286.410156 254.300781 287.246094 253.503906 288.039062 C 252.707031 288.828125 251.859375 289.5625 250.964844 290.242188 C 250.074219 290.921875 249.136719 291.539062 248.164062 292.097656 C 247.1875 292.65625 246.179688 293.148438 245.140625 293.574219 C 244.101562 294.003906 243.039062 294.359375 241.953125 294.648438 C 240.867188 294.9375 239.769531 295.15625 238.652344 295.300781 C 237.539062 295.445312 236.421875 295.519531 235.296875 295.519531 Z M 235.296875 295.519531"/></g><g fill="#FFF"><g><g><path d="M 2.359375 0 L 2.359375 -20.234375 L 9.34375 -20.234375 L 9.34375 -18.109375 L 9.421875 -18.109375 C 11.242188 -19.921875 13.179688 -20.828125 15.234375 -20.828125 C 16.703125 -20.828125 18.078125 -20.523438 19.359375 -19.921875 C 20.648438 -19.316406 21.628906 -18.382812 22.296875 -17.125 C 24.347656 -19.59375 26.582031 -20.828125 29 -20.828125 C 31.15625 -20.828125 33.007812 -20.222656 34.5625 -19.015625 C 36.113281 -17.804688 36.890625 -15.910156 36.890625 -13.328125 L 36.890625 0 L 29.90625 0 L 29.90625 -11.4375 C 29.90625 -12.519531 29.609375 -13.421875 29.015625 -14.140625 C 28.421875 -14.867188 27.535156 -15.234375 26.359375 -15.234375 C 25.328125 -15.234375 24.539062 -14.921875 24 -14.296875 C 23.46875 -13.679688 23.175781 -12.941406 23.125 -12.078125 L 23.125 0 L 16.140625 0 L 16.140625 -11.4375 C 16.140625 -12.519531 15.84375 -13.421875 15.25 -14.140625 C 14.65625 -14.867188 13.765625 -15.234375 12.578125 -15.234375 C 11.503906 -15.234375 10.695312 -14.894531 10.15625 -14.21875 C 9.613281 -13.550781 9.34375 -12.753906 9.34375 -11.828125 L 9.34375 0 Z M 2.359375 0" transform="translate(103.801 198.736)"/></g></g></g><g fill="#FFF"><g><g><path d="M 1.453125 4.96875 L 7.1875 2.171875 C 8.238281 3.910156 10.066406 4.78125 12.671875 4.78125 C 13.878906 4.78125 15 4.390625 16.03125 3.609375 C 17.070312 2.835938 17.59375 1.648438 17.59375 0.046875 L 17.59375 -1.453125 C 16.351562 -0.0859375 14.144531 0.59375 10.96875 0.59375 C 8.050781 0.59375 5.644531 -0.4375 3.75 -2.5 C 1.851562 -4.570312 0.90625 -7.101562 0.90625 -10.09375 C 0.90625 -13.09375 1.851562 -15.628906 3.75 -17.703125 C 5.644531 -19.785156 8.050781 -20.828125 10.96875 -20.828125 C 13.570312 -20.828125 15.742188 -20.023438 17.484375 -18.421875 L 17.59375 -18.421875 L 17.59375 -20.234375 L 24.578125 -20.234375 L 24.578125 0.546875 C 24.578125 3.835938 23.484375 6.375 21.296875 8.15625 C 19.117188 9.945312 16.242188 10.84375 12.671875 10.84375 C 6.878906 10.84375 3.140625 8.882812 1.453125 4.96875 Z M 9.6875 -13.53125 C 8.78125 -12.632812 8.328125 -11.488281 8.328125 -10.09375 C 8.328125 -8.707031 8.757812 -7.570312 9.625 -6.6875 C 10.488281 -5.800781 11.632812 -5.359375 13.0625 -5.359375 C 14.425781 -5.359375 15.546875 -5.804688 16.421875 -6.703125 C 17.304688 -7.597656 17.75 -8.726562 17.75 -10.09375 C 17.75 -11.488281 17.296875 -12.632812 16.390625 -13.53125 C 15.484375 -14.425781 14.375 -14.875 13.0625 -14.875 C 11.71875 -14.875 10.59375 -14.425781 9.6875 -13.53125 Z M 9.6875 -13.53125" transform="translate(142.647 198.736)"/></g></g></g><g fill="#FFF"><g><g><path d="M 4.28125 -2.40625 C 2.03125 -4.40625 0.90625 -6.96875 0.90625 -10.09375 C 0.90625 -13.226562 2.078125 -15.800781 4.421875 -17.8125 C 6.765625 -19.820312 9.65625 -20.828125 13.09375 -20.828125 C 16.488281 -20.828125 19.347656 -19.8125 21.671875 -17.78125 C 24.003906 -15.757812 25.171875 -13.195312 25.171875 -10.09375 C 25.171875 -6.988281 24.03125 -4.429688 21.75 -2.421875 C 19.476562 -0.410156 16.59375 0.59375 13.09375 0.59375 C 9.46875 0.59375 6.53125 -0.40625 4.28125 -2.40625 Z M 9.6875 -13.53125 C 8.78125 -12.632812 8.328125 -11.488281 8.328125 -10.09375 C 8.328125 -8.707031 8.757812 -7.570312 9.625 -6.6875 C 10.488281 -5.800781 11.632812 -5.359375 13.0625 -5.359375 C 14.425781 -5.359375 15.546875 -5.804688 16.421875 -6.703125 C 17.304688 -7.597656 17.75 -8.726562 17.75 -10.09375 C 17.75 -11.488281 17.296875 -12.632812 16.390625 -13.53125 C 15.484375 -14.425781 14.375 -14.875 13.0625 -14.875 C 11.71875 -14.875 10.59375 -14.425781 9.6875 -13.53125 Z M 9.6875 -13.53125" transform="translate(169.582 198.736)"/></g></g></g><g fill="#FFF"><g><g><path d="M 3.75 -2.5 C 1.851562 -4.570312 0.90625 -7.101562 0.90625 -10.09375 C 0.90625 -13.09375 1.851562 -15.628906 3.75 -17.703125 C 5.644531 -19.785156 8.050781 -20.828125 10.96875 -20.828125 C 13.644531 -20.828125 15.851562 -19.988281 17.59375 -18.3125 L 17.59375 -33.921875 L 24.578125 -33.921875 L 24.578125 0 L 17.671875 0 L 17.671875 -2.28125 L 17.59375 -2.28125 C 15.851562 -0.363281 13.644531 0.59375 10.96875 0.59375 C 8.050781 0.59375 5.644531 -0.4375 3.75 -2.5 Z M 9.6875 -13.53125 C 8.78125 -12.632812 8.328125 -11.488281 8.328125 -10.09375 C 8.328125 -8.707031 8.757812 -7.570312 9.625 -6.6875 C 10.488281 -5.800781 11.632812 -5.359375 13.0625 -5.359375 C 14.425781 -5.359375 15.546875 -5.804688 16.421875 -6.703125 C 17.304688 -7.597656 17.75 -8.726562 17.75 -10.09375 C 17.75 -11.488281 17.296875 -12.632812 16.390625 -13.53125 C 15.484375 -14.425781 14.375 -14.875 13.0625 -14.875 C 11.71875 -14.875 10.59375 -14.425781 9.6875 -13.53125 Z M 9.6875 -13.53125" transform="translate(195.65 198.736)"/></g></g></g><g fill="#FFF"><g><g><path d="M 22.84375 -9.15625 L 8.171875 -9.15625 C 8.171875 -7.726562 8.628906 -6.671875 9.546875 -5.984375 C 10.460938 -5.304688 11.460938 -4.96875 12.546875 -4.96875 C 13.679688 -4.96875 14.578125 -5.117188 15.234375 -5.421875 C 15.890625 -5.722656 16.640625 -6.320312 17.484375 -7.21875 L 22.53125 -4.6875 C 20.425781 -1.164062 16.925781 0.59375 12.03125 0.59375 C 8.976562 0.59375 6.359375 -0.453125 4.171875 -2.546875 C 1.992188 -4.640625 0.90625 -7.15625 0.90625 -10.09375 C 0.90625 -13.039062 1.992188 -15.566406 4.171875 -17.671875 C 6.359375 -19.773438 8.976562 -20.828125 12.03125 -20.828125 C 15.238281 -20.828125 17.847656 -19.898438 19.859375 -18.046875 C 21.867188 -16.191406 22.875 -13.539062 22.875 -10.09375 C 22.875 -9.625 22.863281 -9.3125 22.84375 -9.15625 Z M 8.359375 -13.015625 L 16.0625 -13.015625 C 15.90625 -14.066406 15.488281 -14.875 14.8125 -15.4375 C 14.144531 -16.007812 13.285156 -16.296875 12.234375 -16.296875 C 11.078125 -16.296875 10.15625 -15.992188 9.46875 -15.390625 C 8.78125 -14.785156 8.410156 -13.992188 8.359375 -13.015625 Z M 8.359375 -13.015625" transform="translate(222.586 198.736)"/></g></g></g><g fill="#FFF"><g><g><path d="M 7.5 -20.234375 L 12.421875 -9.234375 L 17.359375 -20.234375 L 25.640625 -20.234375 L 14.796875 0 L 10.0625 0 L -0.78125 -20.234375 Z M 7.5 -20.234375" transform="translate(246.367 198.736)"/></g></g></g></svg>